# xmcd
#
# Track frame offsets:
#	150
#	27479
#	53791
#	81659
#	97556
#	115550
#	131806
#	157425
#	187883
#	210312
#	234250
#	239832
#	258531
#	279556
#
# Disc length: 3786 seconds
#
# Revision: 0
# Processed by: cddbd v1.5.2PL0 Copyright (c) Steve Scherf et al.
# Submitted via: audiograbber 1.83.01
#
DISCID=c30ec80e
DTITLE=Taste - Taste it live sweden and denmark
DYEAR=1969
DGENRE=
TTITLE0=What's going on
TTITLE1=Sugar mama
TTITLE2=Sinner boy
TTITLE3=At the bottom
TTITLE4=She's 19 years old
TTITLE5=Morning sun
TTITLE6=Catfish
TTITLE7=Gambling blues
TTITLE8=You need love
TTITLE9=Sugar mama
TTITLE10=I'm moving on
TTITLE11=Railway and gun
TTITLE12=Leaving blues
TTITLE13=I'll remember
EXTD=
EXTT0=
EXTT1=
EXTT2=
EXTT3=
EXTT4=
EXTT5=
EXTT6=
EXTT7=
EXTT8=
EXTT9=
EXTT10=
EXTT11=
EXTT12=
EXTT13=
PLAYORDER=
